<svg width="22" height="22" viewBox="0 0 22 22" fill="none" xmlns="http://www.w3.org/2000/svg">
<path d="M11.0027 0H10.9973C4.93213 0 0 4.9335 0 11C0 13.4062 0.7755 15.6365 2.09413 17.4474L0.72325 21.5339L4.95138 20.1823C6.69075 21.3345 8.76562 22 11.0027 22C17.0679 22 22 17.0651 22 11C22 4.93488 17.0679 0 11.0027 0Z" fill="#4CAF50"/>
<path d="M17.4037 15.5334C17.1384 16.2828 16.0851 16.9043 15.245 17.0858C14.6702 17.2081 13.9195 17.3058 11.3922 16.258C8.15962 14.9188 6.07788 11.6339 5.91563 11.4208C5.76025 11.2076 4.60938 9.68138 4.60938 8.10288C4.60938 6.52438 5.411 5.75575 5.73413 5.42575C5.9995 5.15488 6.43812 5.03113 6.85887 5.03113C6.995 5.03113 7.11738 5.038 7.22738 5.0435C7.5505 5.05725 7.71275 5.0765 7.92587 5.58663C8.19125 6.226 8.8375 7.8045 8.9145 7.96675C8.99287 8.129 9.07125 8.349 8.96125 8.56213C8.85813 8.78213 8.76737 8.87975 8.60512 9.06675C8.44287 9.25375 8.28887 9.39675 8.12662 9.5975C7.97812 9.77213 7.81037 9.95913 7.99738 10.2823C8.18438 10.5985 8.83063 11.6531 9.78212 12.5001C11.01 13.5933 12.0055 13.9425 12.3616 14.091C12.627 14.201 12.9432 14.1749 13.1371 13.9686C13.3832 13.7033 13.6871 13.2633 13.9965 12.8301C14.2165 12.5194 14.4943 12.4809 14.7858 12.5909C15.0828 12.694 16.6544 13.4709 16.9775 13.6318C17.3006 13.794 17.5137 13.871 17.5921 14.0071C17.6691 14.1433 17.6691 14.7826 17.4037 15.5334Z" fill="#FAFAFA"/>
</svg>
