<svg width="71" height="71" viewBox="0 0 71 71" fill="none" xmlns="http://www.w3.org/2000/svg">
<path d="M29.7319 54.3169C29.6563 54.317 29.5809 54.308 29.5074 54.29C29.361 54.255 29.2248 54.1861 29.11 54.0887C28.9952 53.9914 28.9048 53.8684 28.8463 53.7297L25.5045 45.6942C25.4311 45.518 25.4119 45.324 25.4493 45.1368C25.4867 44.9497 25.5791 44.778 25.7147 44.6436L28.0279 42.3495C28.1991 42.1798 28.4279 42.0807 28.6688 42.072C28.9097 42.0633 29.145 42.1456 29.328 42.3025L35.8897 47.9422C35.9952 48.0323 36.0799 48.1442 36.138 48.2701C36.1961 48.3961 36.2262 48.5332 36.2262 48.6719C36.2262 48.8106 36.1961 48.9477 36.138 49.0736C36.0799 49.1996 35.9952 49.3115 35.8897 49.4016L30.3575 54.0923C30.1824 54.2393 29.9605 54.3189 29.7319 54.3169ZM27.5252 45.5493L30.1157 51.7762L33.7895 48.6618L28.7523 44.3327L27.5252 45.5493Z" fill="#9FB296"/>
<path d="M40.7971 54.317C40.5701 54.3169 40.3505 54.2363 40.1773 54.0896L34.6441 49.3988C34.5386 49.3087 34.4539 49.1968 34.3958 49.0708C34.3377 48.9449 34.3076 48.8078 34.3076 48.6691C34.3076 48.5304 34.3377 48.3933 34.3958 48.2673C34.4539 48.1414 34.5386 48.0295 34.6441 47.9394L41.2049 42.2997C41.3852 42.1447 41.6167 42.0623 41.8545 42.0683C42.0922 42.0743 42.3192 42.1684 42.4915 42.3323L44.9026 44.6274C45.0443 44.7624 45.1412 44.9376 45.1805 45.1293C45.2198 45.321 45.1995 45.5202 45.1223 45.7001L41.6788 53.7355C41.6197 53.8733 41.5291 53.9954 41.4143 54.0919C41.2995 54.1883 41.1637 54.2566 41.0178 54.2911C40.9455 54.3087 40.8714 54.3174 40.7971 54.317ZM36.7472 48.6619L40.4325 51.7859L43.0998 45.5581L41.7988 44.3203L36.7472 48.6619Z" fill="#9FB296"/>
<path d="M47.1932 37.8583C46.9387 37.8613 46.6935 37.763 46.5115 37.5851C46.3295 37.4073 46.2256 37.1644 46.2227 36.9099C46.2198 36.6554 46.3181 36.4102 46.4959 36.2282C46.6738 36.0462 46.9167 35.9423 47.1711 35.9394C48.3465 35.9135 51.3976 34.4551 51.7286 31.8694C51.8056 31.5173 51.8122 31.1534 51.748 30.7987C51.6838 30.444 51.55 30.1055 51.3544 29.8027C50.7562 29.2159 49.9567 28.8792 49.1188 28.8615C48.8659 28.8326 48.6348 28.7044 48.4764 28.5051C48.3179 28.3059 48.2452 28.0518 48.274 27.7989C48.3029 27.5459 48.4311 27.3148 48.6304 27.1564C48.8297 26.998 49.0837 26.9252 49.3366 26.9541C50.6858 27.0264 51.9529 27.6243 52.8665 28.6197C53.2245 29.1198 53.4771 29.6874 53.6091 30.2881C53.741 30.8887 53.7495 31.51 53.6341 32.1141C53.162 35.8013 49.2052 37.8132 47.2162 37.8583H47.1932Z" fill="#9FB296"/>
<path d="M23.3719 37.8583H23.3508C21.3628 37.8132 17.4022 35.8013 16.932 32.1141C16.8168 31.51 16.8254 30.8888 16.9574 30.2881C17.0893 29.6875 17.3418 29.1199 17.6996 28.6197C18.6129 27.6245 19.8797 27.0267 21.2285 26.9541C21.4814 26.9252 21.7355 26.998 21.9347 27.1564C22.134 27.3148 22.2622 27.5459 22.2911 27.7989C22.32 28.0518 22.2472 28.3059 22.0888 28.5051C21.9303 28.7044 21.6992 28.8326 21.4463 28.8615C20.6082 28.8795 19.8085 29.216 19.2098 29.8027C19.0144 30.1056 18.8807 30.4441 18.8165 30.7987C18.7523 31.1534 18.7588 31.5172 18.8356 31.8694C19.1676 34.4542 22.2177 35.9135 23.393 35.9394C23.6475 35.9423 23.8904 36.0462 24.0682 36.2282C24.2461 36.4102 24.3444 36.6554 24.3415 36.9099C24.3385 37.1644 24.2346 37.4073 24.0526 37.5851C23.8706 37.763 23.6254 37.8613 23.371 37.8583H23.3719Z" fill="#9FB296"/>
<path d="M35.284 46.2863C31.6736 46.2863 28.0881 44.4403 25.1896 41.0899C22.2929 37.6242 20.7459 33.2287 20.8336 28.7128L20.8528 25.9668C20.8533 25.9046 20.8601 25.8426 20.8729 25.7817L21.44 23.0069C21.6558 22.1339 22.1362 21.3489 22.8152 20.7593C23.4943 20.1696 24.339 19.8043 25.2337 19.7131C28.5586 19.3174 31.8366 18.5956 35.0202 17.5581C41.8477 15.4473 46.5836 17.1964 48.3567 22.4696L49.2777 26.3583C49.271 26.319 49.3056 26.3497 49.3535 26.3583C49.5816 26.3915 49.79 26.5056 49.9408 26.6799C50.0916 26.8541 50.1747 27.0768 50.1748 27.3072V28.6658C49.7306 37.0074 43.2715 46.2863 35.284 46.2863ZM22.7708 26.0743L22.7525 28.7263C22.6677 32.7778 24.0498 36.7236 26.6441 39.8368C29.1694 42.7574 32.2397 44.3674 35.2792 44.3674C42.1115 44.3674 47.8635 35.8973 48.2521 28.6092V27.9453C47.854 27.6929 47.5595 27.3062 47.4221 26.8553L46.5087 22.9896C44.7549 17.7846 39.6006 18.1501 35.5824 19.3878C32.2724 20.4669 28.8638 21.216 25.4064 21.6243C24.9109 21.6753 24.4431 21.8776 24.0666 22.2037C23.6902 22.5299 23.4233 22.9641 23.3023 23.4473L22.7708 26.0743Z" fill="#9FB296"/>
<path d="M49.3526 28.2715C49.2284 28.2743 49.1043 28.2614 48.9833 28.2331C48.6213 28.171 48.2839 28.0092 48.009 27.7658C47.734 27.5224 47.5325 27.207 47.427 26.8553L46.5136 22.9896C44.7597 17.7846 39.6055 18.1501 35.5873 19.3878C32.2771 20.4664 28.8686 21.2156 25.4113 21.6243C24.9157 21.6752 24.4479 21.8776 24.0715 22.2037C23.695 22.5299 23.4281 22.9641 23.3072 23.4473L22.7526 26.1683C22.6578 26.6309 22.3858 27.0379 21.9946 27.3024C21.697 27.5069 21.3435 27.6145 20.9824 27.6104C20.5716 27.6093 20.1731 27.4706 19.8503 27.2166C19.5275 26.9625 19.2992 26.6076 19.2016 26.2086C19.2016 26.2086 18.3688 23.4108 17.75 20.9853C17.6751 20.6764 17.6128 20.3799 17.5581 20.0748C17.0835 17.1817 17.4943 14.2126 18.7366 11.5571C19.9789 8.9015 21.9948 6.68338 24.5199 5.19358C27.8362 3.17312 31.6187 2.04503 35.5 1.91895C37.3637 1.96013 39.2102 2.28562 40.9756 2.88416C44.8492 4.20398 48.1118 6.88557 50.1567 10.4303C52.2015 13.9751 52.8896 18.1419 52.0929 22.1559C51.7388 24.023 51.3589 26.4936 51.355 26.5185C51.2939 27.0053 51.0563 27.4526 50.6872 27.7758C50.3181 28.0989 49.8432 28.2753 49.3526 28.2715ZM40.1917 16.6831C44.2435 16.6831 47.0759 18.65 48.3567 22.4648L49.2778 26.3535C49.2711 26.3142 49.3056 26.3449 49.3536 26.3535C49.3765 26.3514 49.3981 26.3421 49.4153 26.3269C49.4326 26.3118 49.4446 26.2915 49.4496 26.2691C49.4591 26.2048 49.8429 23.7006 50.2037 21.7999C50.9137 18.2447 50.3091 14.5525 48.5023 11.4094C46.6955 8.26623 43.8093 5.88571 40.3798 4.71001C38.806 4.17686 37.161 3.88287 35.5 3.83786C31.9635 3.95871 28.5185 4.99226 25.4995 6.83809C23.3092 8.12453 21.5585 10.0424 20.4765 12.3406C19.3945 14.6387 19.0318 17.2101 19.4357 19.7179C19.4885 19.9808 19.5442 20.2513 19.6094 20.5229C20.0958 22.4255 20.7204 24.5718 20.9526 25.3739L21.4324 23.0069C21.6487 22.1327 22.1301 21.3469 22.8107 20.7572C23.4913 20.1675 24.3377 19.8028 25.2337 19.7131C28.5587 19.3174 31.8366 18.5956 35.0202 17.5581C36.6911 17.0113 38.434 16.7164 40.1917 16.6831Z" fill="#9FB296"/>
<path d="M63.9236 69.0812H7.07567C6.82121 69.0812 6.57716 68.9801 6.39723 68.8001C6.2173 68.6202 6.11621 68.3762 6.11621 68.1217V64.8979C6.12316 59.5119 8.24312 54.3436 12.0204 50.5041C15.7976 46.6646 20.9305 44.4605 26.3157 44.3655H26.3896H26.6582C26.9127 44.3655 27.1567 44.4666 27.3367 44.6465C27.5166 44.8264 27.6177 45.0705 27.6177 45.3249C27.6177 45.5794 27.5166 45.8234 27.3367 46.0034C27.1567 46.1833 26.9127 46.2844 26.6582 46.2844C21.7221 46.2887 16.9892 48.2509 13.4979 51.7404C10.0066 55.2299 8.04199 59.9617 8.03513 64.8979V67.1622H62.9642V64.8979C62.9586 59.963 60.9957 55.2318 57.5062 51.7423C54.0167 48.2528 49.2856 46.29 44.3507 46.2844H44.2394C43.9849 46.2844 43.7409 46.1833 43.5609 46.0034C43.381 45.8234 43.2799 45.5794 43.2799 45.3249C43.2799 45.0705 43.381 44.8264 43.5609 44.6465C43.7409 44.4666 43.9849 44.3655 44.2394 44.3655H44.3507C49.7943 44.3718 55.0131 46.5371 58.8623 50.3863C62.7115 54.2355 64.8768 59.4543 64.8831 64.8979V68.1217C64.8831 68.3762 64.782 68.6202 64.6021 68.8001C64.4221 68.9801 64.1781 69.0812 63.9236 69.0812Z" fill="#9FB296"/>
<path d="M53.7295 69.081H17.27C17.0155 69.081 16.7715 68.9799 16.5916 68.8C16.4116 68.6201 16.3105 68.376 16.3105 68.1216V58.7668C16.3105 58.5124 16.4116 58.2683 16.5916 58.0884C16.7715 57.9085 17.0155 57.8074 17.27 57.8074C17.5245 57.8074 17.7685 57.9085 17.9484 58.0884C18.1284 58.2683 18.2295 58.5124 18.2295 58.7668V67.1621H52.77V58.7668C52.77 58.5124 52.8711 58.2683 53.051 58.0884C53.231 57.9085 53.475 57.8074 53.7295 57.8074C53.9839 57.8074 54.228 57.9085 54.4079 58.0884C54.5878 58.2683 54.6889 58.5124 54.6889 58.7668V68.1216C54.6889 68.376 54.5878 68.6201 54.4079 68.8C54.228 68.9799 53.9839 69.081 53.7295 69.081Z" fill="#9FB296"/>
<path d="M47.9237 42.718C47.7583 42.718 47.5931 42.7054 47.4296 42.6806L37.4838 41.1666C37.2321 41.1284 37.006 40.9918 36.855 40.7869C36.704 40.5819 36.6407 40.3254 36.6788 40.0737C36.717 39.8221 36.8536 39.5959 37.0585 39.4449C37.2635 39.2939 37.52 39.2306 37.7716 39.2687L47.7164 40.7828C47.9133 40.8128 48.1143 40.7998 48.3056 40.7446C48.4969 40.6895 48.674 40.5935 48.8246 40.4633C48.9766 40.3326 49.0987 40.1706 49.1824 39.9885C49.2662 39.8064 49.3098 39.6083 49.3101 39.4079V35.6852C49.3101 35.4307 49.4112 35.1867 49.5911 35.0067C49.7711 34.8268 50.0151 34.7257 50.2696 34.7257C50.524 34.7257 50.7681 34.8268 50.948 35.0067C51.1279 35.1867 51.229 35.4307 51.229 35.6852V39.4079C51.2283 40.285 50.8798 41.126 50.2601 41.7466C49.6403 42.3673 48.7998 42.7169 47.9227 42.719L47.9237 42.718Z" fill="#9FB296"/>
<path d="M35.8348 42.3688C35.2584 42.3688 34.695 42.1979 34.2158 41.8776C33.7366 41.5574 33.3631 41.1023 33.1426 40.5698C32.9221 40.0373 32.8644 39.4513 32.977 38.8861C33.0895 38.3208 33.3671 37.8016 33.7747 37.3941C34.1823 36.9867 34.7016 36.7092 35.2669 36.5969C35.8322 36.4846 36.4181 36.5424 36.9505 36.7631C37.483 36.9838 37.938 37.3574 38.2581 37.8367C38.5781 38.316 38.7489 38.8795 38.7487 39.4559C38.7477 40.2283 38.4403 40.9687 37.894 41.5148C37.3478 42.0609 36.6072 42.368 35.8348 42.3688ZM35.8348 38.4609C35.638 38.4609 35.4456 38.5192 35.282 38.6286C35.1184 38.7379 34.9909 38.8933 34.9156 39.0751C34.8403 39.2569 34.8205 39.457 34.8589 39.65C34.8973 39.843 34.9921 40.0203 35.1312 40.1594C35.2704 40.2985 35.4477 40.3933 35.6407 40.4317C35.8337 40.4701 36.0337 40.4504 36.2155 40.3751C36.3973 40.2998 36.5527 40.1722 36.6621 40.0086C36.7714 39.845 36.8297 39.6526 36.8297 39.4559C36.8295 39.1921 36.7246 38.9391 36.538 38.7526C36.3515 38.5661 36.0986 38.4611 35.8348 38.4609Z" fill="#9FB296"/>
</svg>
