<svg width="70" height="70" viewBox="0 0 70 70" fill="none" xmlns="http://www.w3.org/2000/svg">
<g clip-path="url(#clip0)">
<path d="M6.82281 23.6356C8.11314 25.1102 10.3415 24.4674 12.0075 23.3661C12.752 22.8034 13.4135 22.1385 13.9721 21.3909C14.1705 21.1506 14.363 20.9172 14.5461 20.7096C15.0556 20.9794 15.5474 21.2814 16.0185 21.6137C16.2308 21.7572 16.3976 21.8669 16.4851 21.9159C17.6681 22.6019 18.248 23.0604 18.5583 23.9587C18.711 24.478 18.8095 25.0117 18.8523 25.5512C18.9018 26.0495 18.9797 26.5446 19.0856 27.0341C19.669 29.4957 21.4983 31.3297 23.3825 32.9467C24.7031 34.0761 25.9876 35.2952 27.2325 36.4759L27.5346 36.7629C27.7704 37.0003 27.9858 37.2571 28.1786 37.5306C28.3987 37.8336 28.6363 38.1234 28.8903 38.3986C29.2978 38.8 29.7554 39.147 30.2518 39.4311C30.4758 39.5711 30.7021 39.7099 30.8993 39.8616C30.9775 39.9257 31.0533 39.9946 31.1326 40.0622C31.3102 40.2273 31.4984 40.3805 31.6961 40.5207C32.4528 40.9857 33.3271 41.2234 34.215 41.2056C34.668 41.1652 35.1222 41.2693 35.5123 41.5031C36.1467 42.0461 36.8184 42.5439 37.5225 42.9929C38.426 43.525 39.2414 44.1941 39.9398 44.9762C40.1871 45.3006 40.3925 45.6062 40.5873 45.8944C41.258 47.0845 42.2925 48.0282 43.539 48.5871C43.8946 48.7501 44.2806 48.8364 44.6718 48.8402C44.7558 49.0281 44.8795 49.2719 45.0218 49.5531C45.5767 50.4947 45.9784 51.5186 46.2118 52.5864C46.0718 52.7987 45.9365 53.0216 45.7976 53.2479C45.4394 53.9601 44.9326 54.5871 44.3113 55.0866C43.8713 55.3255 43.3906 55.4802 42.8938 55.5427C42.6056 55.6011 42.3105 55.6594 42.0188 55.7387L41.341 55.9242C39.9537 56.352 38.5285 56.645 37.085 56.7992C36.8137 56.7438 36.559 56.6264 36.3406 56.4562C35.9871 56.2195 35.6044 56.0297 35.202 55.8916C34.1788 55.6408 33.1068 55.6719 32.0998 55.9814C31.8851 56.0292 31.674 56.0759 31.4733 56.1132C29.5976 56.5394 28.214 58.1315 28.0538 60.0484C27.8176 61.685 28.7498 63.2661 30.2961 63.8517C30.6007 63.9566 30.9127 64.0385 31.2295 64.0967C31.3765 64.1271 31.5223 64.1562 31.667 64.1959C32.414 64.4648 33.1096 64.8594 33.7238 65.3626C34.1403 65.6636 34.572 65.9739 35.0456 66.2504C35.5844 66.5347 36.1724 66.7137 36.7781 66.7777C37.0061 66.8074 37.2318 66.8526 37.4536 66.9131C37.904 67.0379 37.9962 67.1371 38.4348 67.6131L38.562 67.7531C39.7838 69.0737 41.464 69.8775 43.259 70.0001C43.8593 70.0162 44.4509 69.8538 44.9588 69.5334C45.5318 69.126 45.9099 68.499 46.003 67.8021C46.0245 67.6873 46.0529 67.5739 46.0882 67.4626C46.1716 67.2186 46.2693 66.9798 46.381 66.7474C47.0357 65.6152 47.1408 64.247 46.6668 63.0281C46.5292 62.5868 46.4373 62.1325 46.3926 61.6724C46.6398 61.6076 46.8992 61.6052 47.1475 61.6654C47.67 61.7545 48.205 61.7386 48.7213 61.6187C51.0232 61.0039 52.3496 58.1841 52.786 55.9534L52.8093 55.8274C52.8395 55.607 52.898 55.3913 52.9832 55.1857C53.1288 55.1301 53.2803 55.091 53.4346 55.0691C54.6252 54.9622 55.6002 54.0782 55.8228 52.9037C56.1615 51.3286 55.8076 49.6839 54.851 48.3876C54.5209 47.9737 54.1308 47.6115 53.6936 47.3131C53.4098 47.1332 53.1608 46.9036 52.9587 46.6352C52.8141 46.3891 52.8195 46.0828 52.9726 45.8419C53.08 45.6879 53.1465 45.6786 53.1861 45.6739C53.4603 45.6272 54.1195 45.8711 55.0458 46.6551C55.2962 46.8882 55.5301 47.1385 55.7458 47.4041C56.5998 48.3887 58.0266 50.0337 60.0438 48.9616C61.6719 47.9227 62.3388 45.8781 61.6363 44.0791C60.925 42.4119 59.6749 41.0316 58.0861 40.1591L57.8971 40.0284L57.7163 39.9117C61.1055 37.2121 66.912 31.3566 67.598 22.4677C68.1852 16.6681 65.1311 11.1081 59.9215 8.49254C54.712 5.87702 48.4285 6.74905 44.1282 10.6844C41.2995 13.2604 39.6811 16.9048 39.6668 20.7306C39.664 24.2059 40.4772 27.6334 42.041 30.7371C41.8846 30.6204 41.7283 30.5037 41.5673 30.4139C40.0273 29.5039 39.6412 28.1039 39.1943 26.4834C38.681 24.6237 38.0452 22.3231 35.3035 21.0922C34.7456 20.5196 34.1185 20.0188 33.4368 19.6012C32.3285 18.8721 32.1185 18.6679 32.2036 18.0332C32.2641 17.8002 32.3593 17.5776 32.486 17.3729C32.7014 17.0043 32.8639 16.6072 32.969 16.1934C33.1015 15.5564 33.0195 14.8935 32.7356 14.3081C32.6478 14.1248 32.5936 13.9272 32.5758 13.7247C32.7671 13.4471 34.0528 13.2732 34.6 13.1997C35.2351 13.149 35.8599 13.0091 36.4561 12.7844C38.5725 11.8126 38.5001 9.6834 38.4465 8.27406C38.4236 7.89213 38.4236 7.50917 38.4465 7.12723C38.534 6.25806 38.765 3.94806 36.546 3.0719C35.7679 2.79257 34.959 2.60769 34.1368 2.52123C33.3592 2.46801 32.5984 2.27018 31.8933 1.9379C31.6483 1.78506 31.4173 1.6299 31.1933 1.4794C30.1367 0.636451 28.8536 0.126069 27.5066 0.0128964C25.65 -0.00963105 23.8036 0.291192 22.0501 0.901896C21.2681 1.19327 20.5873 1.70509 20.0901 2.3754C19.9098 2.5967 19.7108 2.80202 19.4951 2.98906C19.3785 3.08123 19.1451 3.07306 18.6715 3.03223C18.3615 2.99905 18.0496 2.98814 17.7381 2.99956C17.0115 3.07251 16.3268 3.37442 15.7828 3.86173C15.6179 3.99923 15.4393 4.11926 15.2496 4.2199C15.0595 4.30156 14.783 4.1779 14.2486 3.89206C13.1054 3.01084 11.4833 3.1257 10.4756 4.15923C9.23431 5.44606 8.76998 5.92906 7.15764 6.1834C6.29664 6.31756 4.28064 6.63373 3.86531 8.60656C3.76007 9.22219 3.80489 9.85412 3.99598 10.4487C4.08785 10.7041 4.12443 10.9761 4.10331 11.2467C3.98455 11.4589 3.82612 11.6462 3.63664 11.7986C3.21584 12.1614 2.87702 12.6096 2.64264 13.1134C2.30546 13.9933 2.23049 14.9521 2.42681 15.8737C2.89698 18.8091 4.81614 21.3384 6.82281 23.6356ZM45.7031 12.4017C47.8713 10.4146 50.7095 9.31887 53.6505 9.3334C54.0285 9.3334 54.41 9.34973 54.7926 9.38473C61.2117 10.1204 65.8672 15.8496 65.274 22.2834C64.5647 31.4721 57.7303 37.1152 55.0972 38.9667L55.0528 38.9971C54.767 39.1977 54.5173 39.3646 54.3528 39.4707C53.9385 39.7327 53.4103 39.7327 52.996 39.4707C50.1943 37.638 47.7643 35.2923 45.8338 32.5571L45.8221 32.5396C43.3541 29.095 42.0184 24.9681 42.0001 20.7306C41.9937 17.554 43.3404 14.525 45.7031 12.4017ZM4.79981 14.0129C4.9249 13.81 5.08256 13.6291 5.26648 13.4774C5.77125 13.0553 6.14788 12.5005 6.35381 11.8756C6.5065 11.2147 6.47461 10.5246 6.26164 9.88056C6.17387 9.63013 6.13506 9.36515 6.14731 9.10006C6.19748 8.85856 6.45064 8.66256 7.52281 8.49456C9.36167 8.23315 11.0246 7.26092 12.1545 5.78673C12.368 5.56623 12.3878 5.5534 13.1566 5.95823C14.0449 6.58139 15.1819 6.73001 16.2005 6.35606C16.5592 6.18534 16.8958 5.97142 17.2026 5.71906C17.3885 5.53631 17.6177 5.40382 17.8688 5.33406C18.0695 5.32786 18.2703 5.33683 18.4696 5.3609C19.3178 5.51869 20.1939 5.33457 20.9068 4.84873C21.2479 4.56907 21.5605 4.25644 21.8401 3.9154C22.0694 3.5856 22.3768 3.31783 22.735 3.13606C24.2299 2.60203 25.8072 2.33545 27.3946 2.34856C28.3141 2.45421 29.182 2.82834 29.8901 3.42423C30.1363 3.58873 30.3895 3.7579 30.6601 3.92473C31.6312 4.44214 32.699 4.7524 33.7961 4.8359C34.4355 4.9009 35.0656 5.03748 35.6745 5.24306C35.9766 5.35973 36.2578 5.4764 36.119 6.90906C36.085 7.39254 36.0819 7.87769 36.1096 8.36156C36.1621 9.87823 36.0828 10.3904 35.475 10.6692C35.0852 10.7799 34.6861 10.8545 34.2826 10.8921C32.7823 11.0951 29.9905 11.4754 30.253 14.0537C30.3006 14.4478 30.4071 14.8324 30.5691 15.1947C30.6986 15.5121 30.7103 15.5634 30.6858 15.6871C30.6202 15.8945 30.5309 16.0938 30.4198 16.2809C30.1578 16.7219 29.9772 17.2064 29.8866 17.7112C29.5961 19.8777 31.0708 20.8472 32.1476 21.5612C32.726 21.9033 33.2515 22.3277 33.7075 22.8212C33.8296 22.9682 33.9864 23.0824 34.1636 23.1537C36.0606 23.9214 36.4503 25.3307 36.9426 27.1146C37.4501 28.9556 38.0265 31.0427 40.3738 32.4322C40.666 32.6214 40.9454 32.8295 41.2103 33.0552C42.0044 33.9066 43.1168 34.3893 44.281 34.3876C46.3307 37.1655 48.8568 39.558 51.7418 41.4541C52.9213 42.196 54.4225 42.1929 55.5988 41.4459L55.7026 41.3782C56.0013 41.5754 56.2988 41.7691 56.6045 41.9767L56.7573 42.0841C57.8999 42.686 58.8267 43.6287 59.4092 44.7814C59.6518 45.5654 59.5725 46.5781 58.9495 46.9071C58.6858 47.0482 58.47 46.9934 57.5086 45.8827C57.2124 45.5225 56.8887 45.1859 56.5403 44.8759C55.5809 43.8852 54.2523 43.3387 52.8735 43.3674C52.1271 43.4695 51.4616 43.8899 51.0488 44.5201C50.3725 45.5103 50.3324 46.8031 50.9461 47.8334C51.2977 48.3724 51.7554 48.834 52.2913 49.1902C52.5428 49.3566 52.7707 49.5559 52.9692 49.7829C53.5259 50.5321 53.7341 51.4842 53.5408 52.3974C53.4766 52.6867 53.4767 52.6867 52.9692 52.7882C52.1072 52.87 51.339 53.3662 50.91 54.1182C50.7108 54.5226 50.5762 54.9556 50.511 55.4016L50.4888 55.5182C50.1668 57.1667 49.2242 59.0777 48.1065 59.3776C47.8735 59.4073 47.6374 59.4007 47.4065 59.3577C46.6865 59.2177 45.9405 59.3126 45.2785 59.6284C43.5973 60.5407 44.1013 62.4727 44.4011 63.6266C44.5186 63.9965 44.591 64.3792 44.617 64.7664C44.5453 65.127 44.4223 65.4755 44.2518 65.8012C44.1039 66.113 43.9745 66.4332 43.8645 66.7602C43.8043 66.9477 43.7553 67.1386 43.7175 67.3319C43.6941 67.4392 43.6626 67.5851 43.6486 67.6166C43.5415 67.6648 43.424 67.6856 43.3068 67.6772C42.1385 67.5905 41.0486 67.0564 40.2641 66.1862L40.1405 66.0509C39.6215 65.3815 38.898 64.9001 38.0801 64.6801C37.7665 64.5943 37.4478 64.5284 37.1258 64.4829C36.8059 64.4557 36.493 64.374 36.2006 64.2414C35.811 64.0151 35.4423 63.7467 35.0725 63.4807C34.2389 62.8079 33.2902 62.2916 32.2725 61.9571C32.0788 61.9022 31.8816 61.8614 31.6891 61.8194C31.4977 61.7872 31.309 61.7408 31.1245 61.6806C30.5605 61.4748 30.2362 60.883 30.3661 60.2969C30.426 59.4186 31.025 58.6697 31.8688 58.4186C32.1021 58.3754 32.3506 58.3229 32.5945 58.2692C33.2099 58.0684 33.8649 58.02 34.5031 58.1281C34.7164 58.2138 34.9197 58.3221 35.1098 58.4512C35.7343 58.9114 36.4939 59.151 37.2693 59.1326C38.8558 58.9679 40.4226 58.6499 41.9477 58.1829L42.6185 58.0009C42.8623 57.9344 43.1038 57.8842 43.3418 57.8399C44.1191 57.7275 44.8675 57.466 45.5457 57.0699C46.485 56.3924 47.2509 55.5026 47.781 54.4729C47.9058 54.2676 48.0295 54.0657 48.1578 53.8686C49.02 52.5386 48.1461 50.5704 47.0938 48.5019C46.9666 48.2534 46.8605 48.0352 46.7811 47.8696C46.532 47.0035 45.705 46.4346 44.8071 46.5116C44.6928 46.5319 44.5749 46.5134 44.4723 46.4591C43.6299 46.0756 42.9402 45.4208 42.5135 44.5994C42.2941 44.2739 42.0608 43.9286 41.7831 43.5669C40.9378 42.573 39.9351 41.7245 38.8152 41.0551C38.2034 40.6674 37.6188 40.2386 37.0651 39.7717C36.2948 39.1555 35.3278 38.8381 34.3421 38.8781C33.8816 38.9012 33.4228 38.8056 33.0098 38.6004C32.8949 38.5169 32.7857 38.4257 32.6831 38.3274C32.577 38.2341 32.472 38.1384 32.3448 38.0369C32.0671 37.8275 31.7785 37.6327 31.4803 37.4536C31.1513 37.2685 30.8458 37.0444 30.5703 36.7862C30.3807 36.578 30.203 36.3591 30.0383 36.1306C29.768 35.7493 29.4638 35.3932 29.1295 35.0666L28.8355 34.7854C27.5708 33.5861 26.263 32.3436 24.898 31.1769C23.3136 29.8177 21.7876 28.3092 21.3548 26.5009C21.2698 26.0979 21.2071 25.6905 21.167 25.2806C21.1084 24.5744 20.9722 23.8768 20.761 23.2004C20.194 21.7349 19.0765 20.5491 17.6471 19.8964C17.5818 19.8579 17.4686 19.7797 17.3263 19.6829C15.9263 18.7344 14.3315 17.6599 13.257 18.6842C12.8736 19.0728 12.5114 19.4817 12.172 19.9092C11.7497 20.4744 11.2578 20.984 10.7078 21.4259C9.67298 22.1107 8.74081 22.2834 8.57981 22.0979C6.80414 20.0644 5.10898 17.8582 4.72981 15.5027C4.61403 15.0093 4.63827 14.4933 4.79981 14.0129Z" fill="#9FB296"/>
<path d="M8.14694 50.6685C8.07218 51.7472 8.31903 52.824 8.85627 53.7625C9.49524 54.7676 10.5527 55.4317 11.7356 55.5708C11.858 55.5851 11.9811 55.5921 12.1043 55.5918C13.027 55.5385 13.9057 55.1798 14.6021 54.5721L14.8704 54.3808C15.1514 54.2767 15.4472 54.218 15.7466 54.207C16.6336 54.2166 17.4851 53.8595 18.0998 53.22C18.5057 52.663 18.7598 52.0101 18.8371 51.3253C18.9456 50.6895 19.0144 50.049 19.0833 49.4085C19.1451 48.8251 19.2058 48.2523 19.3014 47.6783C19.3773 47.2116 19.4764 46.7543 19.5744 46.2946C19.8208 45.287 19.9731 44.2586 20.0294 43.2228C20.0481 42.5067 19.9823 41.7908 19.8334 41.0901C19.6973 40.4522 19.4931 39.8307 19.2244 39.2363C18.6116 37.5736 17.0863 36.4203 15.3196 36.2834C14.327 36.3701 13.3954 36.799 12.6841 37.4968C12.4186 37.7312 12.1279 37.9355 11.8173 38.1058C11.4951 38.2117 11.1589 38.2691 10.8198 38.2761C9.86077 38.3566 8.07344 38.5094 7.73044 40.6013C7.64639 41.4603 7.80483 42.3256 8.18777 43.0991C8.26127 43.2823 8.33477 43.4631 8.39544 43.6463C8.72976 45.0722 8.73535 46.5555 8.41177 47.984C8.27116 48.8729 8.18273 49.7692 8.14694 50.6685ZM10.1011 40.7634C10.395 40.6612 10.7035 40.6072 11.0146 40.6036C11.6305 40.5854 12.2381 40.4558 12.8078 40.2209C13.2903 39.9746 13.7409 39.6702 14.1494 39.3145C14.6779 38.8886 15.0186 38.6261 15.3733 38.6144H15.3931C16.0756 38.6144 16.7406 39.4054 17.0976 40.1953C17.5183 41.1248 17.7233 42.1375 17.6973 43.1575C17.6423 44.0502 17.5068 44.9362 17.2924 45.8046C17.1863 46.2993 17.0813 46.7963 16.9996 47.2945C16.8969 47.9116 16.8293 48.5346 16.7663 49.1611C16.7021 49.755 16.6403 50.3488 16.5411 50.9356C16.5134 51.2164 16.4343 51.4896 16.3078 51.7418C16.0478 51.8255 15.7779 51.8749 15.5051 51.8888C14.8115 51.9124 14.1356 52.1132 13.5416 52.4721L13.2418 52.6868C12.6374 53.1231 12.3551 53.297 12.0063 53.2573C11.5284 53.197 11.1014 52.9289 10.8396 52.5246C10.5535 51.9694 10.4321 51.344 10.4896 50.7221C10.5239 49.9151 10.605 49.1107 10.7323 48.313C11.1225 46.5279 11.0825 44.6755 10.6156 42.909C10.5398 42.685 10.4523 42.4633 10.3624 42.2405C10.1561 41.8518 10.0434 41.4203 10.0334 40.9804C10.0396 40.904 10.0627 40.8299 10.1011 40.7634Z" fill="#9FB296"/>
<path d="M53.6667 29.1668C58.177 29.1668 61.8333 25.5105 61.8333 21.0002C61.8333 16.4898 58.177 12.8335 53.6667 12.8335C49.1563 12.8335 45.5 16.4898 45.5 21.0002C45.5051 25.5084 49.1585 29.1617 53.6667 29.1668ZM53.6667 15.1668C56.8883 15.1668 59.5 17.7785 59.5 21.0002C59.5 24.2218 56.8883 26.8335 53.6667 26.8335C50.445 26.8335 47.8333 24.2218 47.8333 21.0002C47.8372 17.7801 50.4466 15.1707 53.6667 15.1668Z" fill="#9FB296"/>
</g>
<defs>
<clipPath id="clip0">
<rect width="70" height="70" fill="white"/>
</clipPath>
</defs>
</svg>
