<svg width="70" height="70" viewBox="0 0 70 70" fill="none" xmlns="http://www.w3.org/2000/svg">
<path d="M44.9827 8.64976C44.2792 3.71886 39.9872 0 34.9996 0C31.792 0 28.7458 1.54782 26.8518 4.14188C26.4649 4.67091 26.5806 5.41301 27.1097 5.79988C27.637 6.18535 28.3808 6.071 28.767 5.54127C30.2168 3.55758 32.5463 2.37299 34.9993 2.37299C38.8137 2.37299 42.0953 5.21558 42.6334 8.98449C42.7182 9.57644 43.226 10.0036 43.8068 10.0036C43.8621 10.0036 43.9191 9.99945 43.9757 9.99181C44.6244 9.899 45.0752 9.29802 44.9827 8.64976Z" fill="#9FB296"/>
<path d="M62.1186 21.9315L58.5592 15.9992C58.3451 15.6415 57.959 15.4232 57.5419 15.4232H54.131C53.4761 15.4232 52.9446 15.9547 52.9446 16.6095C52.9446 17.2644 53.4761 17.7959 54.131 17.7959H56.8703L59.0059 21.3552H10.993L13.1286 17.7959H14.3851C15.04 17.7959 15.5715 17.2644 15.5715 16.6095C15.5715 15.9547 15.04 15.4232 14.3851 15.4232H12.4571C12.04 15.4232 11.6538 15.6415 11.4397 15.9992L7.88036 21.9315C7.66033 22.2985 7.65512 22.7549 7.86541 23.1268C8.0757 23.4988 8.46987 23.7289 8.89775 23.7289H61.1012C61.5291 23.7289 61.9229 23.4988 62.1335 23.1268C62.3442 22.7549 62.3386 22.2978 62.1186 21.9315Z" fill="#9FB296"/>
<path d="M56.2045 10.9918C56.0384 10.7238 55.7732 10.5336 55.4666 10.462L39.2929 6.67922C38.9867 6.60727 38.6641 6.6608 38.3965 6.82625C38.1295 6.9924 37.939 7.25761 37.8674 7.56418L36.6477 12.778C36.4983 13.4159 36.8945 14.054 37.5327 14.2028C38.1705 14.3523 38.8094 13.956 38.9582 13.3178L39.9078 9.25972L53.7707 12.5024L51.5924 21.8161C51.4429 22.4539 51.8391 23.0921 52.4773 23.2408C52.5687 23.262 52.6595 23.2721 52.7491 23.2721C53.2879 23.2721 53.7756 22.903 53.9024 22.3562L56.3512 11.8875C56.4235 11.5813 56.3707 11.2587 56.2045 10.9918Z" fill="#9FB296"/>
<path d="M35.6269 13.7965L34.5459 4.65316C34.509 4.34068 34.3495 4.05531 34.102 3.86066C33.8545 3.66601 33.5421 3.57702 33.2282 3.61387L13.3843 5.9594C12.734 6.03657 12.2689 6.62608 12.3457 7.27711L14.148 22.5269C14.2196 23.1307 14.7316 23.5745 15.3249 23.5745C15.3711 23.5745 15.4187 23.5714 15.466 23.5662C16.116 23.489 16.5811 22.8995 16.5046 22.2485L14.8414 8.17598L32.329 6.10921L33.2702 14.0742C33.3474 14.7249 33.9341 15.1872 34.588 15.1135C35.2383 15.037 35.7034 14.4472 35.6269 13.7965Z" fill="#9FB296"/>
<path d="M45.0098 22.0913L42.6549 12.2984C42.5812 11.9928 42.389 11.7283 42.121 11.5639C41.853 11.4009 41.5315 11.3498 41.2239 11.4228L22.111 16.0193C21.4739 16.1722 21.0818 16.8132 21.2347 17.4503L22.4117 22.3451C22.5646 22.9829 23.2056 23.3753 23.8423 23.2214C24.4795 23.0684 24.8716 22.4275 24.7186 21.7903L23.8187 18.0489L40.6247 14.0078L42.7022 22.6468C42.8325 23.1908 43.3192 23.5557 43.8548 23.5557C43.9469 23.5557 44.0401 23.545 44.1336 23.5224C44.7707 23.3691 45.1628 22.7285 45.0098 22.0913Z" fill="#9FB296"/>
<path d="M62.2869 22.4817C62.2542 21.8512 61.7336 21.3562 61.1016 21.3562H8.89822C8.2663 21.3562 7.74561 21.8508 7.71294 22.4817L5.33994 68.7528C5.32326 69.0774 5.44074 69.3951 5.66459 69.6308C5.88879 69.8661 6.19953 69.9999 6.52487 69.9999H63.4739C63.7989 69.9999 64.11 69.8665 64.3353 69.6308C64.5588 69.3951 64.6763 69.0778 64.6599 68.7528L62.2869 22.4817ZM7.77342 67.627L10.0248 23.7288H59.9737L62.225 67.627H7.77342Z" fill="#9FB296"/>
<path d="M43.8977 26.1016C41.9349 26.1016 40.3384 27.698 40.3384 29.6609C40.3384 31.6237 41.9349 33.2202 43.8977 33.2202C45.8605 33.2202 47.457 31.6237 47.457 29.6609C47.457 27.698 45.8605 26.1016 43.8977 26.1016ZM43.8977 30.8476C43.2432 30.8476 42.7114 30.3154 42.7114 29.6612C42.7114 29.0071 43.2435 28.4749 43.8977 28.4749C44.5519 28.4749 45.084 29.0071 45.084 29.6612C45.084 30.3154 44.5519 30.8476 43.8977 30.8476Z" fill="#9FB296"/>
<path d="M26.1013 26.1016C24.1385 26.1016 22.542 27.698 22.542 29.6609C22.542 31.6237 24.1385 33.2202 26.1013 33.2202C28.0641 33.2202 29.6606 31.6237 29.6606 29.6609C29.6606 27.698 28.0641 26.1016 26.1013 26.1016ZM26.1013 30.8476C25.4471 30.8476 24.915 30.3154 24.915 29.6612C24.915 29.0071 25.4471 28.4749 26.1013 28.4749C26.7555 28.4749 27.2876 29.0071 27.2876 29.6612C27.2876 30.3154 26.7555 30.8476 26.1013 30.8476Z" fill="#9FB296"/>
<path d="M43.8979 29.6609H43.8065C43.1517 29.6609 42.6202 30.1924 42.6202 30.8472C42.6202 31.0092 42.6522 31.1639 42.7116 31.3046V37.3725C42.7116 41.6246 39.2521 45.0845 34.9997 45.0845C30.7472 45.0845 27.2877 41.6249 27.2877 37.3725V30.8476C27.2877 30.1927 26.7562 29.6612 26.1014 29.6612C25.4465 29.6612 24.915 30.1927 24.915 30.8476V37.3729C24.915 42.9336 29.4389 47.4575 34.9997 47.4575C40.5604 47.4575 45.0843 42.9336 45.0843 37.3729V30.8476C45.0843 30.1927 44.5528 29.6609 43.8979 29.6609Z" fill="#9FB296"/>
</svg>
