<svg width="71" height="71" viewBox="0 0 71 71" fill="none" xmlns="http://www.w3.org/2000/svg">
<path d="M40.2335 26.0676H30.7668C30.1133 26.0676 29.5835 26.5975 29.5835 27.251V60.3843C29.5835 61.0378 30.1133 61.5676 30.7668 61.5676H40.2335C40.887 61.5676 41.4168 61.0378 41.4168 60.3843V27.251C41.4168 26.5973 40.887 26.0676 40.2335 26.0676ZM39.0502 59.201H31.9502V28.4343H39.0502V59.201Z" fill="#9FB296"/>
<path d="M68.6334 21.3344H59.1667C58.5132 21.3344 57.9834 21.8642 57.9834 22.5177V60.3844C57.9834 61.0378 58.5132 61.5677 59.1667 61.5677H68.6334C69.2869 61.5677 69.8167 61.0378 69.8167 60.3844V22.5177C69.8167 21.864 69.2869 21.3344 68.6334 21.3344ZM67.4501 59.201H60.3501V23.701H67.4501V59.201Z" fill="#9FB296"/>
<path d="M54.4332 47.3677H44.9665C44.313 47.3677 43.7832 47.8975 43.7832 48.551V60.3843C43.7832 61.0378 44.313 61.5677 44.9665 61.5677H54.4332C55.0867 61.5677 55.6165 61.0378 55.6165 60.3843V48.551C55.6165 47.8974 55.0867 47.3677 54.4332 47.3677ZM53.2499 59.201H46.1499V49.7343H53.2499V59.201Z" fill="#9FB296"/>
<path d="M11.8331 30.801H2.36644C1.71294 30.801 1.18311 31.3309 1.18311 31.9844V60.3844C1.18311 61.0379 1.71294 61.5677 2.36644 61.5677H11.8331C12.4866 61.5677 13.0164 61.0379 13.0164 60.3844V31.9844C13.0164 31.3307 12.4866 30.801 11.8331 30.801ZM10.6498 59.201H3.54977V33.1677H10.6498V59.201Z" fill="#9FB296"/>
<path d="M26.0333 37.901H16.5666C15.9131 37.901 15.3833 38.4308 15.3833 39.0843V60.3843C15.3833 61.0378 15.9131 61.5677 16.5666 61.5677H26.0333C26.6868 61.5677 27.2166 61.0378 27.2166 60.3843V39.0843C27.2166 38.4307 26.6868 37.901 26.0333 37.901ZM24.85 59.201H17.75V40.2677H24.85V59.201Z" fill="#9FB296"/>
<path d="M63.969 1.14917C61.3359 1.13024 59.1861 3.24929 59.1671 5.88236C59.1575 7.21184 59.7035 8.48495 60.6734 9.39435L50.8517 27.4082C49.962 27.162 49.017 27.2056 48.1537 27.5325L39.017 13.8213C40.7676 11.8799 40.6129 8.88684 38.6714 7.1364C36.7298 5.38595 33.7369 5.54052 31.9864 7.48208C30.7003 8.90859 30.4036 10.9708 31.2354 12.7021L24.0514 18.6813C22.0806 17.2437 19.3353 17.5654 17.7502 19.4197L11.7258 16.4069C12.2722 13.8505 10.6426 11.3352 8.08634 10.7889C5.5299 10.2425 3.01458 11.872 2.46832 14.4284C1.92192 16.9848 3.55137 19.5002 6.10781 20.0464C6.43397 20.1161 6.76663 20.1511 7.10018 20.151C8.46471 20.1466 9.76002 19.5499 10.6502 18.5156L16.6745 21.5284C16.1061 24.08 17.7138 26.6093 20.2654 27.1778C22.8169 27.7462 25.3463 26.1385 25.9147 23.587C26.1459 22.5493 26.0211 21.4641 25.5602 20.506L32.7442 14.5266C33.9824 15.443 35.5988 15.6743 37.0444 15.1419L46.1786 28.8532C44.4327 30.7989 44.5948 33.7916 46.5407 35.5374C48.4864 37.2833 51.479 37.1212 53.2249 35.1753C54.9493 33.2535 54.8153 30.3043 52.9237 28.5467L62.7454 10.5329C63.1226 10.6314 63.5106 10.6823 63.9003 10.6843C66.5334 10.7033 68.6832 8.58421 68.7021 5.95114C68.7211 3.31808 66.6019 1.16825 63.969 1.14917ZM7.10018 17.7843C5.79304 17.7843 4.73352 16.7248 4.73352 15.4177C4.73352 14.1105 5.79304 13.051 7.10018 13.051C8.40732 13.051 9.46685 14.1105 9.46685 15.4177C9.46685 16.7248 8.40732 17.7843 7.10018 17.7843ZM21.3002 24.8843C19.993 24.8843 18.9335 23.8248 18.9335 22.5177C18.9335 21.2105 19.993 20.151 21.3002 20.151C22.6073 20.151 23.6668 21.2105 23.6668 22.5177C23.6668 23.8248 22.6073 24.8843 21.3002 24.8843ZM35.5002 13.051C34.193 13.051 33.1335 11.9915 33.1335 10.6843C33.1335 9.37719 34.193 8.31766 35.5002 8.31766C36.8073 8.31766 37.8668 9.37719 37.8668 10.6843C37.8668 11.9915 36.8073 13.051 35.5002 13.051ZM49.7002 34.351C48.393 34.351 47.3335 33.2915 47.3335 31.9843C47.3335 30.6772 48.393 29.6177 49.7002 29.6177C51.0073 29.6177 52.0668 30.6772 52.0668 31.9843C52.0668 33.2915 51.0073 34.351 49.7002 34.351ZM63.9002 8.31766C62.593 8.31766 61.5335 7.25813 61.5335 5.95099C61.5335 4.64385 62.593 3.58433 63.9002 3.58433C65.2073 3.58433 66.2668 4.64385 66.2668 5.95099C66.2668 7.25813 65.2073 8.31766 63.9002 8.31766Z" fill="#9FB296"/>
<path d="M69.8167 62.751H1.18333C0.529837 62.751 0 63.2808 0 63.9343V68.6676C0 69.3211 0.529837 69.851 1.18333 69.851H69.8167C70.4702 69.851 71 69.3211 71 68.6676V63.9343C71 63.2807 70.4702 62.751 69.8167 62.751ZM68.6333 67.4843H2.36667V65.1176H68.6333V67.4843Z" fill="#9FB296"/>
</svg>
